<svg width="23" height="24" viewBox="0 0 23 24" fill="none" xmlns="http://www.w3.org/2000/svg">
<path d="M15.8123 13.4918C14.3748 13.4918 13.2248 13.8752 12.3623 14.3543C13.704 15.5043 14.279 16.846 14.3748 16.9418L14.4706 17.1335V19.2418H22.1373V17.3252C22.0415 17.3252 20.5081 13.4918 15.8123 13.4918Z" fill="#0499DD"/>
<path d="M15.8122 11.5752C17.6646 11.5752 19.1663 10.0734 19.1663 8.22099C19.1663 6.36853 17.6646 4.86682 15.8122 4.86682C13.9597 4.86682 12.458 6.36853 12.458 8.22099C12.458 10.0734 13.9597 11.5752 15.8122 11.5752Z" fill="#0499DD"/>
<path d="M3.8335 8.22099C3.8335 6.40015 5.36683 4.86682 7.18766 4.86682C9.0085 4.86682 10.5418 6.40015 10.5418 8.22099C10.5418 10.0418 9.0085 11.5752 7.18766 11.5752C5.36683 11.5752 3.8335 10.0418 3.8335 8.22099ZM7.18766 13.4918C2.49183 13.4918 0.958496 17.3252 0.958496 17.3252V19.2418H13.4168V17.3252C13.4168 17.3252 11.8835 13.4918 7.18766 13.4918Z" fill="#0499DD"/>
</svg>
